<?xml version="1.0" standalone="no"?><!DOCTYPE svg PUBLIC "-//W3C//DTD SVG 1.1//EN" "http://www.w3.org/Graphics/SVG/1.1/DTD/svg11.dtd"><svg t="1605371540661" class="icon" viewBox="0 0 1024 1024" version="1.1" xmlns="http://www.w3.org/2000/svg" p-id="1474" xmlns:xlink="http://www.w3.org/1999/xlink" width="200" height="200"><defs><style type="text/css"></style></defs><path d="M511.79 512.57m-448.09 0a448.09 448.09 0 1 0 896.18 0 448.09 448.09 0 1 0-896.18 0Z" fill="#395EF7" p-id="1475"></path><path d="M511.67 512m-192 0a192 192 0 1 0 384 0 192 192 0 1 0-384 0Z" fill="#FFF18A" p-id="1476"></path><path d="M511.67 711.5c-110 0-199.5-89.5-199.5-199.5s89.5-199.5 199.5-199.5c110.01 0 199.5 89.5 199.5 199.5s-89.5 199.5-199.5 199.5z m0-384c-101.73 0-184.5 82.77-184.5 184.5s82.77 184.5 184.5 184.5 184.5-82.77 184.5-184.5c0-101.74-82.77-184.5-184.5-184.5z" fill="#333333" p-id="1477"></path><path d="M680.57 437.63c0.63 55.26-19.19 115.06-59.67 166.44-35.48 45.03-80.96 76.15-127.93 91.45 6.15 0.62 12.38 0.94 18.69 0.94 101.9 0 184.5-82.6 184.5-184.5 0-26.45-5.57-51.59-15.59-74.33z" fill="#FCA14F" p-id="1478"></path><path d="M541.76 289.93c-17.54-2.18-29.99-18.17-27.81-35.7l9.75-78.41c2.18-17.54 18.17-29.99 35.7-27.81 17.54 2.18 29.99 18.17 27.81 35.7l-9.75 78.41c-2.17 17.54-18.16 29.99-35.7 27.81zM464.59 910.54c-17.54-2.18-29.99-18.17-27.81-35.7l9.75-78.41c2.18-17.54 18.17-29.99 35.7-27.81 17.54 2.18 29.99 18.17 27.81 35.7l-9.75 78.41c-2.17 17.54-18.16 29.99-35.7 27.81z" fill="#2047C4" p-id="1479"></path><path d="M512 271.13c-17.67 0-32-14.33-32-32v-79.01c0-17.67 14.33-32 32-32s32 14.33 32 32v79.01c0 17.67-14.33 32-32 32zM512 896.51c-17.67 0-32-14.33-32-32V785.5c0-17.67 14.33-32 32-32s32 14.33 32 32v79.01c0 17.68-14.33 32-32 32z" fill="#FFF18A" p-id="1480"></path><path d="M695.93 382.22c-10.86-13.94-8.36-34.05 5.58-44.91l62.34-48.55c13.94-10.86 34.05-8.36 44.91 5.58s8.36 34.05-5.58 44.91l-62.34 48.55c-13.94 10.86-34.05 8.36-44.91-5.58zM202.53 766.49c-10.86-13.94-8.36-34.05 5.58-44.91l62.34-48.55c13.94-10.86 34.05-8.36 44.91 5.58s8.36 34.05-5.58 44.91l-62.34 48.55c-13.94 10.86-34.05 8.36-44.91-5.58zM770.24 543.36c2.21-17.53 18.21-29.96 35.75-27.75l78.39 9.87c17.53 2.21 29.96 18.21 27.75 35.75-2.21 17.53-18.21 29.96-35.75 27.75l-78.39-9.87c-17.54-2.21-29.96-18.21-27.75-35.75zM149.75 465.21c2.21-17.53 18.21-29.96 35.75-27.75l78.39 9.87c17.53 2.21 29.96 18.21 27.75 35.75-2.21 17.53-18.21 29.96-35.75 27.75l-78.39-9.87c-17.53-2.21-29.96-18.21-27.75-35.75z" fill="#2047C4" p-id="1481"></path><path d="M682.21 341.95c-12.5-12.5-12.5-32.76 0-45.25l55.87-55.87c12.5-12.5 32.76-12.5 45.25 0 12.5 12.5 12.5 32.76 0 45.25l-55.87 55.87c-12.49 12.5-32.75 12.5-45.25 0zM240 784.17c-12.5-12.5-12.5-32.76 0-45.25l55.87-55.87c12.5-12.5 32.76-12.5 45.25 0 12.5 12.5 12.5 32.76 0 45.25l-55.87 55.87c-12.5 12.49-32.76 12.49-45.25 0zM753.47 512.22c0-17.67 14.33-32 32-32h79.01c17.67 0 32 14.33 32 32s-14.33 32-32 32h-79.01c-17.67 0-32-14.32-32-32zM128.08 512.22c0-17.67 14.33-32 32-32h79.01c17.67 0 32 14.33 32 32s-14.33 32-32 32h-79.01c-17.67 0-32-14.32-32-32z" fill="#FFF18A" p-id="1482"></path><path d="M669.14 713.51c13.94-10.86 34.05-8.36 44.91 5.58l48.55 62.34c10.86 13.94 8.36 34.05-5.58 44.91s-34.05 8.36-44.91-5.58l-48.55-62.34c-10.87-13.94-8.37-34.05 5.58-44.91zM284.87 220.11c13.94-10.86 34.05-8.36 44.91 5.58l48.55 62.34c10.86 13.94 8.36 34.05-5.58 44.91s-34.05 8.36-44.91-5.58l-48.55-62.34c-10.87-13.95-8.37-34.05 5.58-44.91z" fill="#2047C4" p-id="1483"></path><path d="M682.34 682.34c12.5-12.5 32.76-12.5 45.25 0l55.87 55.87c12.5 12.5 12.5 32.76 0 45.25-12.5 12.5-32.76 12.5-45.25 0l-55.87-55.87c-12.5-12.49-12.5-32.75 0-45.25zM240.12 240.13c12.5-12.5 32.76-12.5 45.25 0L341.25 296c12.5 12.5 12.5 32.76 0 45.25-12.5 12.5-32.76 12.5-45.25 0l-55.87-55.87c-12.5-12.49-12.5-32.75-0.01-45.25z" fill="#FFF18A" p-id="1484"></path><path d="M657.1 158.44m-15.9 0a15.9 15.9 0 1 0 31.8 0 15.9 15.9 0 1 0-31.8 0Z" fill="#FFFFFF" p-id="1485"></path><path d="M147.32 590.36m-11.24 0a11.24 11.24 0 1 0 22.48 0 11.24 11.24 0 1 0-22.48 0Z" fill="#FFFFFF" p-id="1486"></path><path d="M356.33 169.67l-3.61-2.51-4.39-0.16 2.51-3.61 0.16-4.39 3.61 2.5 4.39 0.17-2.5 3.61zM218.06 421.08l-3.61-2.5-4.39-0.16 2.5-3.61 0.16-4.39 3.61 2.5 4.39 0.16-2.5 3.61zM423.79 239.29l-10.44-7.24-12.69-0.47 7.24-10.44 0.47-12.69 10.44 7.24 12.69 0.47-7.24 10.43z" fill="#FFFFFF" p-id="1487"></path></svg>